<svg width="960" height="177" viewBox="0 0 960 177" fill="none" xmlns="http://www.w3.org/2000/svg">
<path d="M120.056 20L121.66 18.0818L120.056 20ZM120.056 83.6L121.66 85.5182L120.056 83.6ZM30.2563 94.8V92.3H27.7563V94.8H30.2563ZM30.2563 140V142.5H32.7563V140H30.2563ZM0.25625 140H-2.24375V142.5H0.25625V140ZM0.25625 8.8V6.3H-2.24375V8.8H0.25625ZM97.6562 64.4L99.1313 66.4185L99.1561 66.4003L99.1805 66.3816L97.6562 64.4ZM97.6562 39.4L96.132 41.3816L96.1564 41.4003L96.1812 41.4185L97.6562 39.4ZM30.2563 35.4V32.9H27.7563V35.4H30.2563ZM30.2563 68.2H27.7563V70.7H30.2563V68.2ZM83.4563 11.3C98.5309 11.3 110.099 14.9355 118.453 21.9182L121.66 18.0818C112.147 10.1312 99.315 6.3 83.4563 6.3V11.3ZM118.453 21.9182C126.751 28.8535 130.956 38.3147 130.956 50.6H135.956C135.956 37.0187 131.229 26.0798 121.66 18.0818L118.453 21.9182ZM130.956 50.6V52.8H135.956V50.6H130.956ZM130.956 52.8C130.956 65.2279 126.744 74.7518 118.453 81.6818L121.66 85.5182C131.235 77.5148 135.956 66.5054 135.956 52.8H130.956ZM118.453 81.6818C110.099 88.6645 98.5309 92.3 83.4563 92.3V97.3C99.315 97.3 112.147 93.4688 121.66 85.5182L118.453 81.6818ZM83.4563 92.3H30.2563V97.3H83.4563V92.3ZM27.7563 94.8V140H32.7563V94.8H27.7563ZM30.2563 137.5H0.25625V142.5H30.2563V137.5ZM2.75625 140V8.8H-2.24375V140H2.75625ZM0.25625 11.3H83.4563V6.3H0.25625V11.3ZM82.6562 70.7C89.4592 70.7 95.0654 69.3897 99.1313 66.4185L96.1812 62.3815C93.3138 64.477 88.9199 65.7 82.6562 65.7V70.7ZM99.1805 66.3816C103.365 63.1628 105.356 58.5037 105.356 52.8H100.356C100.356 57.2296 98.881 60.3038 96.132 62.4184L99.1805 66.3816ZM105.356 52.8V50.6H100.356V52.8H105.356ZM105.356 50.6C105.356 45.0049 103.345 40.4605 99.1313 37.3815L96.1812 41.4185C98.9012 43.4062 100.356 46.3284 100.356 50.6H105.356ZM99.1805 37.4184C95.1079 34.2856 89.481 32.9 82.6562 32.9V37.9C88.8982 37.9 93.2713 39.181 96.132 41.3816L99.1805 37.4184ZM82.6562 32.9H30.2563V37.9H82.6562V32.9ZM27.7563 35.4V68.2H32.7563V35.4H27.7563ZM30.2563 70.7H82.6562V65.7H30.2563V70.7ZM174.567 136.4L173.543 138.68L173.556 138.687L173.57 138.693L174.567 136.4ZM153.367 118.8L151.26 120.145L151.265 120.153L151.27 120.161L153.367 118.8ZM153.167 61.4L151.06 60.0555L151.051 60.0685L151.043 60.0816L153.167 61.4ZM174.367 43.6L173.343 41.3196L174.367 43.6ZM239.567 43.6L240.604 41.3252L239.567 43.6ZM260.367 61.4L258.243 62.7184L258.251 62.7315L258.26 62.7445L260.367 61.4ZM260.367 118.8L258.26 117.455L258.253 117.465L260.367 118.8ZM239.567 136.4L240.576 138.687L240.59 138.681L240.604 138.675L239.567 136.4ZM229.567 109.6L228.029 107.629L228.017 107.638L228.005 107.648L229.567 109.6ZM183.967 70.4L185.529 72.3522L185.544 72.3404L185.558 72.3284L183.967 70.4ZM183.967 109.6L182.405 111.552L182.417 111.562L182.429 111.571L183.967 109.6ZM207.167 139.9C194.894 139.9 184.381 137.941 175.564 134.107L173.57 138.693C183.153 142.859 194.374 144.9 207.167 144.9V139.9ZM175.592 134.12C166.779 130.16 160.107 124.591 155.464 117.439L151.27 120.161C156.494 128.209 163.956 134.373 173.543 138.68L175.592 134.12ZM155.475 117.455C150.831 110.176 148.467 101.589 148.467 91.6H143.467C143.467 102.411 146.037 111.958 151.26 120.145L155.475 117.455ZM148.467 91.6V89H143.467V91.6H148.467ZM148.467 89C148.467 78.7179 150.777 69.9921 155.291 62.7184L151.043 60.0816C145.958 68.2746 143.467 77.9487 143.467 89H148.467ZM155.275 62.7445C159.92 55.4626 166.59 49.8347 175.392 45.8804L173.343 41.3196C163.744 45.632 156.281 51.8707 151.06 60.0555L155.275 62.7445ZM175.392 45.8804C184.198 41.9239 194.766 39.9 207.167 39.9V34.9C194.235 34.9 182.936 37.0095 173.343 41.3196L175.392 45.8804ZM207.167 39.9C219.432 39.9 229.862 41.9229 238.53 45.8748L240.604 41.3252C231.139 37.0104 219.969 34.9 207.167 34.9V39.9ZM238.53 45.8748C247.192 49.8237 253.728 55.4437 258.243 62.7184L262.491 60.0816C257.407 51.8896 250.075 45.6429 240.604 41.3252L238.53 45.8748ZM258.26 62.7445C262.897 70.0144 265.267 78.7306 265.267 89H270.267C270.267 77.9361 267.704 68.2523 262.475 60.0555L258.26 62.7445ZM265.267 89V91.6H270.267V89H265.267ZM265.267 91.6C265.267 101.589 262.904 110.176 258.26 117.455L262.475 120.145C267.697 111.958 270.267 102.411 270.267 91.6H265.267ZM258.253 117.465C253.741 124.61 247.204 130.171 238.53 134.125L240.604 138.675C250.064 134.362 257.393 128.19 262.481 120.135L258.253 117.465ZM238.558 134.113C229.882 137.941 219.442 139.9 207.167 139.9V144.9C219.959 144.9 231.119 142.859 240.576 138.687L238.558 134.113ZM206.967 118.5C217.032 118.5 225.198 116.297 231.129 111.552L228.005 107.648C223.27 111.436 216.369 113.5 206.967 113.5V118.5ZM231.105 111.571C237.266 106.762 240.267 99.9191 240.267 91.4H235.267C235.267 98.6142 232.802 103.904 228.029 107.629L231.105 111.571ZM240.267 91.4V89.2H235.267V91.4H240.267ZM240.267 89.2C240.267 80.4667 237.371 73.4324 231.358 68.4716L228.176 72.3284C232.83 76.1676 235.267 81.6666 235.267 89.2H240.267ZM231.358 68.4716C225.42 63.5724 217.171 61.3 206.967 61.3V66.3C216.496 66.3 223.448 68.4276 228.176 72.3284L231.358 68.4716ZM206.967 61.3C196.639 61.3 188.32 63.5681 182.376 68.4716L185.558 72.3284C190.281 68.4319 197.295 66.3 206.967 66.3V61.3ZM182.405 68.4478C176.353 73.2895 173.467 80.3509 173.467 89.2H178.467C178.467 81.5158 180.914 76.0439 185.529 72.3522L182.405 68.4478ZM173.467 89.2V91.4H178.467V89.2H173.467ZM173.467 91.4C173.467 99.8964 176.385 106.736 182.405 111.552L185.529 107.648C180.883 103.931 178.467 98.6369 178.467 91.4H173.467ZM182.429 111.571C188.487 116.299 196.773 118.5 206.967 118.5V113.5C197.428 113.5 190.381 111.434 185.505 107.629L182.429 111.571ZM367.081 39.8H369.581V37.3H367.081V39.8ZM367.081 65.4V67.9H369.581V65.4H367.081ZM318.281 74.8L316.337 73.2282L315.781 73.9158V74.8H318.281ZM318.281 140V142.5H320.781V140H318.281ZM289.481 140H286.981V142.5H289.481V140ZM289.481 39.8V37.3H286.981V39.8H289.481ZM316.481 39.8L318.972 39.5834L318.773 37.3H316.481V39.8ZM317.281 49L314.791 49.2166L315.175 53.6336L318.755 51.0191L317.281 49ZM364.581 39.8V65.4H369.581V39.8H364.581ZM367.081 62.9H344.681V67.9H367.081V62.9ZM344.681 62.9C331.815 62.9 322.092 66.1102 316.337 73.2282L320.225 76.3718C324.604 70.9565 332.48 67.9 344.681 67.9V62.9ZM315.781 74.8V140H320.781V74.8H315.781ZM318.281 137.5H289.481V142.5H318.281V137.5ZM291.981 140V39.8H286.981V140H291.981ZM289.481 42.3H316.481V37.3H289.481V42.3ZM313.991 40.0166L314.791 49.2166L319.772 48.7834L318.972 39.5834L313.991 40.0166ZM318.755 51.0191C326.65 45.2548 336.507 42.3 348.481 42.3V37.3C335.656 37.3 324.712 40.4786 315.807 46.9809L318.755 51.0191ZM348.481 42.3H367.081V37.3H348.481V42.3ZM430.613 65.4V62.9H428.113V65.4H430.613ZM433.612 111.8L431.845 113.568L431.904 113.627L431.966 113.681L433.612 111.8ZM466.212 114.6H468.712V112.1H466.212V114.6ZM466.212 140V142.5H468.712V140H466.212ZM411.612 130.8L409.9 132.622L409.91 132.631L409.92 132.64L411.612 130.8ZM401.612 65.4H404.112V62.9H401.612V65.4ZM368.212 65.4H365.712V67.9H368.212V65.4ZM368.212 39.8V37.3H365.712V39.8H368.212ZM400.812 38.2L402.58 39.9678V39.9678L400.812 38.2ZM402.413 13.2V10.7H399.913V13.2H402.413ZM430.613 13.2H433.113V10.7H430.613V13.2ZM430.613 39.8H428.113V42.3H430.613V39.8ZM472.212 39.8H474.712V37.3H472.212V39.8ZM472.212 65.4V67.9H474.712V65.4H472.212ZM428.113 65.4V103.4H433.113V65.4H428.113ZM428.113 103.4C428.113 107.473 429.257 110.98 431.845 113.568L435.38 110.032C433.968 108.62 433.113 106.527 433.113 103.4H428.113ZM431.966 113.681C434.698 116.072 438.362 117.1 442.613 117.1V112.1C439.13 112.1 436.793 111.261 435.259 109.919L431.966 113.681ZM442.613 117.1H466.212V112.1H442.613V117.1ZM463.712 114.6V140H468.712V114.6H463.712ZM466.212 137.5H438.812V142.5H466.212V137.5ZM438.812 137.5C427.8 137.5 419.397 134.565 413.305 128.96L409.92 132.64C417.161 139.302 426.892 142.5 438.812 142.5V137.5ZM413.325 128.978C407.245 123.263 404.112 115.502 404.112 105.4H399.112C399.112 116.632 402.647 125.803 409.9 132.622L413.325 128.978ZM404.112 105.4V65.4H399.112V105.4H404.112ZM401.612 62.9H368.212V67.9H401.612V62.9ZM370.712 65.4V39.8H365.712V65.4H370.712ZM368.212 42.3H395.013V37.3H368.212V42.3ZM395.013 42.3C397.965 42.3 400.777 41.7707 402.58 39.9678L399.045 36.4322C398.714 36.7626 397.66 37.3 395.013 37.3V42.3ZM402.58 39.9678C404.383 38.1648 404.913 35.3521 404.913 32.4H399.913C399.913 35.0479 399.375 36.1018 399.045 36.4322L402.58 39.9678ZM404.913 32.4V13.2H399.913V32.4H404.913ZM402.413 15.7H430.613V10.7H402.413V15.7ZM428.113 13.2V39.8H433.113V13.2H428.113ZM430.613 42.3H472.212V37.3H430.613V42.3ZM469.712 39.8V65.4H474.712V39.8H469.712ZM472.212 62.9H430.613V67.9H472.212V62.9ZM601.319 39.8H603.819V37.3H601.319V39.8ZM601.319 140V142.5H603.819V140H601.319ZM574.319 140L571.827 140.208L572.018 142.5H574.319V140ZM573.519 130.4L576.01 130.192L575.598 125.245L571.868 128.522L573.519 130.4ZM539.719 142.4L539.738 144.9L539.753 144.9L539.767 144.9L539.719 142.4ZM500.319 129.2L498.538 130.955L498.551 130.968L498.564 130.981L500.319 129.2ZM486.919 39.8V37.3H484.419V39.8H486.919ZM515.919 39.8H518.419V37.3H515.919V39.8ZM522.919 109.2L521.151 110.968L521.176 110.993L521.202 111.018L522.919 109.2ZM560.719 111.8L561.928 113.988L561.95 113.976L561.971 113.964L560.719 111.8ZM572.319 100L574.518 101.189L574.819 100.632V100H572.319ZM572.319 39.8V37.3H569.819V39.8H572.319ZM598.819 39.8V140H603.819V39.8H598.819ZM601.319 137.5H574.319V142.5H601.319V137.5ZM576.81 139.792L576.01 130.192L571.027 130.608L571.827 140.208L576.81 139.792ZM571.868 128.522C563.587 135.8 552.92 139.643 539.67 139.9L539.767 144.9C553.984 144.623 565.851 140.467 575.169 132.278L571.868 128.522ZM539.699 139.9C522.923 140.03 510.521 135.742 502.073 127.419L498.564 130.981C508.25 140.525 522.114 145.037 539.738 144.9L539.699 139.9ZM502.1 127.445C493.78 119.002 489.419 106.399 489.419 89.2H484.419C484.419 107.201 488.991 121.265 498.538 130.955L502.1 127.445ZM489.419 89.2V39.8H484.419V89.2H489.419ZM486.919 42.3H515.919V37.3H486.919V42.3ZM513.419 39.8V89.2H518.419V39.8H513.419ZM513.419 89.2C513.419 98.314 515.882 105.699 521.151 110.968L524.687 107.432C520.622 103.368 518.419 97.4193 518.419 89.2H513.419ZM521.202 111.018C526.616 116.131 534.255 118.5 543.719 118.5V113.5C535.049 113.5 528.821 111.336 524.635 107.382L521.202 111.018ZM543.719 118.5C550.372 118.5 556.461 117.009 561.928 113.988L559.51 109.612C554.843 112.191 549.598 113.5 543.719 113.5V118.5ZM561.971 113.964C567.419 110.81 571.622 106.547 574.518 101.189L570.12 98.8112C567.682 103.32 564.152 106.924 559.466 109.636L561.971 113.964ZM574.819 100V39.8H569.819V100H574.819ZM572.319 42.3H601.319V37.3H572.319V42.3ZM743.106 39.8H745.606V37.3H743.106V39.8ZM683.706 176.4L683.723 173.9L683.715 173.9H683.706V176.4ZM639.706 166.2L638.35 168.3L639.706 166.2ZM623.906 136.6V134.1H621.406V136.6H623.906ZM653.506 136.6H656.006V134.1H653.506V136.6ZM661.906 147.4L660.876 149.678L661.906 147.4ZM706.106 145.6L704.708 143.528L704.678 143.548L704.648 143.569L706.106 145.6ZM714.106 124.6H716.606V119.91L712.713 122.524L714.106 124.6ZM638.506 50.2L640.102 52.1247L640.109 52.1185L640.117 52.1123L638.506 50.2ZM715.506 47.6L714.034 49.6206L717.655 52.2589L717.999 47.7917L715.506 47.6ZM716.106 39.8V37.3H713.791L713.614 39.6082L716.106 39.8ZM701.706 106.2L700.828 103.859L701.706 106.2ZM714.106 98L716.015 99.6149L716.606 98.9158V98H714.106ZM714.106 74.6H716.606V73.6842L716.015 72.9851L714.106 74.6ZM701.506 66.2L700.578 68.5212L700.588 68.5251L700.597 68.5289L701.506 66.2ZM660.706 104L659.233 106.019L659.263 106.042L659.295 106.063L660.706 104ZM740.606 39.8V128.8H745.606V39.8H740.606ZM740.606 128.8C740.606 144.258 735.85 155.411 726.693 162.749C717.432 170.171 703.253 174.032 683.723 173.9L683.689 178.9C703.759 179.035 719.281 175.096 729.82 166.651C740.462 158.122 745.606 145.342 745.606 128.8H740.606ZM683.706 173.9C665.163 173.9 651.037 170.539 641.062 164.1L638.35 168.3C649.442 175.461 664.65 178.9 683.706 178.9V173.9ZM641.062 164.1C631.213 157.742 626.406 149.051 626.406 137.8H621.406C621.406 150.816 627.132 161.058 638.35 168.3L641.062 164.1ZM626.406 137.8V136.6H621.406V137.8H626.406ZM623.906 139.1H653.506V134.1H623.906V139.1ZM651.006 136.6V137.8H656.006V136.6H651.006ZM651.006 137.8C651.006 143.16 654.966 147.004 660.876 149.678L662.937 145.122C657.647 142.729 656.006 140.173 656.006 137.8H651.006ZM660.876 149.678C666.9 152.403 674.347 153.7 683.106 153.7V148.7C674.799 148.7 668.113 147.464 662.937 145.122L660.876 149.678ZM683.106 153.7C693.48 153.7 701.756 151.8 707.564 147.631L704.648 143.569C700.056 146.866 692.999 148.7 683.106 148.7V153.7ZM707.505 147.672C713.588 143.566 716.606 137.488 716.606 129.8H711.606C711.606 135.979 709.291 140.434 704.708 143.528L707.505 147.672ZM716.606 129.8V124.6H711.606V129.8H716.606ZM712.713 122.524C703.842 128.48 693.342 131.5 681.106 131.5V136.5C694.204 136.5 705.703 133.253 715.5 126.676L712.713 122.524ZM681.106 131.5C662.894 131.5 649.264 127.565 639.868 120.048L636.745 123.952C647.348 132.435 662.252 136.5 681.106 136.5V131.5ZM639.868 120.048C630.563 112.604 625.806 101.915 625.806 87.6H620.806C620.806 103.151 626.049 115.396 636.745 123.952L639.868 120.048ZM625.806 87.6V85.6H620.806V87.6H625.806ZM625.806 85.6C625.806 71.0155 630.634 59.9733 640.102 52.1247L636.911 48.2753C626.112 57.2267 620.806 69.7845 620.806 85.6H625.806ZM640.117 52.1123C649.654 44.0806 663.207 39.9 681.106 39.9V34.9C662.473 34.9 647.625 39.2527 636.896 48.2877L640.117 52.1123ZM681.106 39.9C694.274 39.9 705.201 43.1847 714.034 49.6206L716.978 45.5794C707.145 38.4153 695.138 34.9 681.106 34.9V39.9ZM717.999 47.7917L718.599 39.9917L713.614 39.6082L713.014 47.4083L717.999 47.7917ZM716.106 42.3H743.106V37.3H716.106V42.3ZM684.106 111.7C690.769 111.7 696.938 110.658 702.584 108.541L700.828 103.859C695.808 105.742 690.243 106.7 684.106 106.7V111.7ZM702.584 108.541C708.217 106.428 712.744 103.48 716.015 99.6149L712.198 96.3851C709.602 99.4529 705.862 101.972 700.828 103.859L702.584 108.541ZM716.606 98V74.6H711.606V98H716.606ZM716.015 72.9851C712.746 69.1216 708.159 66.1126 702.415 63.8711L700.597 68.5289C705.787 70.554 709.6 73.145 712.198 76.2149L716.015 72.9851ZM702.435 63.8788C696.78 61.617 690.662 60.5 684.106 60.5V65.5C690.084 65.5 695.566 66.5163 700.578 68.5212L702.435 63.8788ZM684.106 60.5C673.608 60.5 665.281 62.4128 659.527 66.6344C653.63 70.962 650.806 77.4359 650.806 85.6H655.806C655.806 78.6974 658.116 73.8714 662.485 70.6656C666.998 67.3539 674.072 65.5 684.106 65.5V60.5ZM650.806 85.6V87.6H655.806V85.6H650.806ZM650.806 87.6C650.806 95.5507 653.521 101.851 659.233 106.019L662.18 101.981C658.025 98.9486 655.806 94.316 655.806 87.6H650.806ZM659.295 106.063C664.98 109.953 673.39 111.7 684.106 111.7V106.7C673.756 106.7 666.566 104.98 662.118 101.937L659.295 106.063ZM896.769 114.6H899.269V112.1H896.769V114.6ZM896.769 140V142.5H899.269V140H896.769ZM863.769 137L862.678 139.25L862.719 139.269L862.76 139.287L863.769 137ZM853.769 128L855.925 126.736L854.334 124.021L852.049 126.185L853.769 128ZM777.569 134.4L778.972 132.331L777.569 134.4ZM774.569 92.6L776.152 94.5349L776.165 94.5242L776.178 94.5134L774.569 92.6ZM800.169 83.4L800.435 85.8858L800.44 85.8852L800.169 83.4ZM849.569 78L849.84 80.4852L852.458 80.1991L852.036 77.5998L849.569 78ZM802.769 66.8L803.861 69.0488L803.874 69.0425L803.887 69.0361L802.769 66.8ZM795.769 77V79.5H798.269V77H795.769ZM766.569 77H764.069V79.5H766.569V77ZM773.369 55.8L771.412 54.2437L771.401 54.2575L771.391 54.2714L773.369 55.8ZM793.169 42.2L794.047 44.5408L793.169 42.2ZM863.969 49.2L862.397 51.1443L862.404 51.1496L862.41 51.1547L863.969 49.2ZM835.169 115.4L836.073 117.731L836.085 117.726L836.097 117.721L835.169 115.4ZM849.769 104.8L851.82 106.229L852.269 105.585V104.8H849.769ZM849.769 98H852.269V95.198L849.485 95.5162L849.769 98ZM807.769 102.8L807.485 100.316L807.476 100.317L807.468 100.318L807.769 102.8ZM797.969 105.6L796.644 103.48V103.48L797.969 105.6ZM894.269 114.6V140H899.269V114.6H894.269ZM896.769 137.5H879.769V142.5H896.769V137.5ZM879.769 137.5C873.903 137.5 868.927 136.543 864.778 134.713L862.76 139.287C867.677 141.457 873.368 142.5 879.769 142.5V137.5ZM864.859 134.75C860.862 132.812 857.919 130.137 855.925 126.736L851.612 129.264C854.151 133.596 857.875 136.921 862.678 139.25L864.859 134.75ZM852.049 126.185C842.519 135.214 828.817 139.9 810.569 139.9V144.9C829.654 144.9 844.752 139.986 855.488 129.815L852.049 126.185ZM810.569 139.9C796.706 139.9 786.268 137.277 778.972 132.331L776.166 136.469C784.603 142.189 796.165 144.9 810.569 144.9V139.9ZM778.972 132.331C771.799 127.468 768.269 120.781 768.269 112H763.269C763.269 122.419 767.605 130.665 776.166 136.469L778.972 132.331ZM768.269 112C768.269 104.554 770.912 98.8218 776.152 94.5349L772.986 90.6651C766.492 95.9782 763.269 103.179 763.269 112H768.269ZM776.178 94.5134C781.524 90.0178 789.51 87.0563 800.435 85.8858L799.902 80.9142C788.428 82.1437 779.347 85.3156 772.96 90.6866L776.178 94.5134ZM800.44 85.8852L849.84 80.4852L849.297 75.5148L799.897 80.9148L800.44 85.8852ZM852.036 77.5998C851.111 71.8903 848 67.5402 842.877 64.7115C837.883 61.9537 831.099 60.7 822.769 60.7V65.7C830.705 65.7 836.521 66.913 840.46 69.0885C844.271 71.1931 846.427 74.243 847.101 78.4002L852.036 77.5998ZM822.769 60.7C814.052 60.7 806.944 61.9175 801.651 64.5639L803.887 69.0361C808.194 66.8825 814.419 65.7 822.769 65.7V60.7ZM801.677 64.5512C796.413 67.1079 793.269 71.0472 793.269 76.4H798.269C798.269 73.4861 799.791 71.0254 803.861 69.0488L801.677 64.5512ZM793.269 76.4V77H798.269V76.4H793.269ZM795.769 74.5H766.569V79.5H795.769V74.5ZM769.069 77V76.4H764.069V77H769.069ZM769.069 76.4C769.069 69.0504 771.173 62.7298 775.347 57.3286L771.391 54.2714C766.497 60.6036 764.069 68.0162 764.069 76.4H769.069ZM775.325 57.3563C779.655 51.9134 785.846 47.6161 794.047 44.5408L792.291 39.8592C783.425 43.1839 776.416 47.9533 771.412 54.2437L775.325 57.3563ZM794.047 44.5408C802.24 41.4682 811.865 39.9 822.969 39.9V34.9C811.406 34.9 801.164 36.5318 792.291 39.8592L794.047 44.5408ZM822.969 39.9C840.225 39.9 853.259 43.7585 862.397 51.1443L865.54 47.2556C855.212 38.9082 840.912 34.9 822.969 34.9V39.9ZM862.41 51.1547C871.618 58.496 876.269 68.6083 876.269 81.8H881.269C881.269 67.2583 876.053 55.6374 865.527 47.2452L862.41 51.1547ZM876.269 81.8V106.6H881.269V81.8H876.269ZM876.269 106.6C876.269 109.75 877.191 112.541 879.428 114.487C881.599 116.374 884.596 117.1 887.969 117.1V112.1C885.208 112.1 883.605 111.492 882.709 110.713C881.88 109.993 881.269 108.783 881.269 106.6H876.269ZM887.969 117.1H896.769V112.1H887.969V117.1ZM812.569 121.7C821.346 121.7 829.196 120.397 836.073 117.731L834.265 113.069C828.075 115.469 820.858 116.7 812.569 116.7V121.7ZM836.097 117.721C843.067 114.933 848.394 111.145 851.82 106.229L847.718 103.371C845.01 107.255 840.604 110.533 834.24 113.079L836.097 117.721ZM852.269 104.8V98H847.269V104.8H852.269ZM849.485 95.5162L807.485 100.316L808.053 105.284L850.053 100.484L849.485 95.5162ZM807.468 100.318C802.94 100.867 799.241 101.857 796.644 103.48L799.294 107.72C800.963 106.676 803.797 105.8 808.07 105.282L807.468 100.318ZM796.644 103.48C793.822 105.244 792.269 107.889 792.269 111.2H797.269C797.269 109.711 797.849 108.623 799.294 107.72L796.644 103.48ZM792.269 111.2C792.269 113.029 792.789 114.727 793.873 116.189C794.936 117.622 796.437 118.69 798.194 119.48C801.649 121.033 806.526 121.7 812.569 121.7V116.7C806.745 116.7 802.722 116.034 800.244 114.92C799.034 114.376 798.31 113.778 797.889 113.211C797.49 112.673 797.269 112.037 797.269 111.2H792.269ZM921.133 132.4L919.475 134.271L919.487 134.282L919.499 134.292L921.133 132.4ZM912.333 0.799992V-1.70001H909.833V0.799992H912.333ZM941.133 0.799992H943.633V-1.70001H941.133V0.799992ZM943.533 112.4L945.222 110.557L943.533 112.4ZM959.933 114.6H962.433V112.1H959.933V114.6ZM959.933 140V142.5H962.433V140H959.933ZM945.933 137.5C935.641 137.5 928.034 135.057 922.767 130.508L919.499 134.292C925.965 139.877 934.892 142.5 945.933 142.5V137.5ZM922.791 130.529C917.554 125.887 914.833 119.421 914.833 110.8H909.833C909.833 120.579 912.978 128.513 919.475 134.271L922.791 130.529ZM914.833 110.8V0.799992H909.833V110.8H914.833ZM912.333 3.29999H941.133V-1.70001H912.333V3.29999ZM938.633 0.799992V105.6H943.633V0.799992H938.633ZM938.633 105.6C938.633 109.071 939.543 112.134 941.844 114.243L945.222 110.557C944.323 109.733 943.633 108.263 943.633 105.6H938.633ZM941.844 114.243C944.126 116.335 947.493 117.1 951.333 117.1V112.1C947.973 112.1 946.139 111.398 945.222 110.557L941.844 114.243ZM951.333 117.1H959.933V112.1H951.333V117.1ZM957.433 114.6V140H962.433V114.6H957.433ZM959.933 137.5H945.933V142.5H959.933V137.5Z" fill="white" fill-opacity="0.03"/>
</svg>
