<svg xmlns="http://www.w3.org/2000/svg"><symbol id="Arrow" viewBox="0 0 24 24"><path d="M14 4.5V9c5.523 0 10 4.477 10 10 0 .273-.01.543-.032.81a9.003 9.003 0 0 0-7.655-4.805L16 15h-2v4.5L6 12l8-7.5zm-6 0v2.737L2.92 12l5.079 4.761L8 19.5 0 12l8-7.5z" fill="#342922"/></symbol><symbol id="lazy" viewBox="0 0 100 100" preserveAspectRatio="xMidYMid"><rect x="47" y="24" rx="3" ry="6" width="6" height="12" fill="#fe718d" style="animation-play-state:running;animation-delay:0s"><animate attributeName="opacity" values="1;0" keyTimes="0;1" dur="1s" begin="-0.9166666666666666s" repeatCount="indefinite"/></rect><rect x="47" y="24" rx="3" ry="6" width="6" height="12" fill="#fe718d" style="animation-play-state:running;animation-delay:0s" transform="rotate(30 50 50)"><animate attributeName="opacity" values="1;0" keyTimes="0;1" dur="1s" begin="-0.8333333333333334s" repeatCount="indefinite"/></rect><rect x="47" y="24" rx="3" ry="6" width="6" height="12" fill="#fe718d" style="animation-play-state:running;animation-delay:0s" transform="rotate(60 50 50)"><animate attributeName="opacity" values="1;0" keyTimes="0;1" dur="1s" begin="-0.75s" repeatCount="indefinite"/></rect><rect x="47" y="24" rx="3" ry="6" width="6" height="12" fill="#fe718d" style="animation-play-state:running;animation-delay:0s" transform="rotate(90 50 50)"><animate attributeName="opacity" values="1;0" keyTimes="0;1" dur="1s" begin="-0.6666666666666666s" repeatCount="indefinite"/></rect><rect x="47" y="24" rx="3" ry="6" width="6" height="12" fill="#fe718d" style="animation-play-state:running;animation-delay:0s" transform="rotate(120 50 50)"><animate attributeName="opacity" values="1;0" keyTimes="0;1" dur="1s" begin="-0.5833333333333334s" repeatCount="indefinite"/></rect><rect x="47" y="24" rx="3" ry="6" width="6" height="12" fill="#fe718d" style="animation-play-state:running;animation-delay:0s" transform="rotate(150 50 50)"><animate attributeName="opacity" values="1;0" keyTimes="0;1" dur="1s" begin="-0.5s" repeatCount="indefinite"/></rect><rect x="47" y="24" rx="3" ry="6" width="6" height="12" fill="#fe718d" style="animation-play-state:running;animation-delay:0s" transform="rotate(180 50 50)"><animate attributeName="opacity" values="1;0" keyTimes="0;1" dur="1s" begin="-0.4166666666666667s" repeatCount="indefinite"/></rect><rect x="47" y="24" rx="3" ry="6" width="6" height="12" fill="#fe718d" style="animation-play-state:running;animation-delay:0s" transform="rotate(210 50 50)"><animate attributeName="opacity" values="1;0" keyTimes="0;1" dur="1s" begin="-0.3333333333333333s" repeatCount="indefinite"/></rect><rect x="47" y="24" rx="3" ry="6" width="6" height="12" fill="#fe718d" style="animation-play-state:running;animation-delay:0s" transform="rotate(240 50 50)"><animate attributeName="opacity" values="1;0" keyTimes="0;1" dur="1s" begin="-0.25s" repeatCount="indefinite"/></rect><rect x="47" y="24" rx="3" ry="6" width="6" height="12" fill="#fe718d" style="animation-play-state:running;animation-delay:0s" transform="rotate(270 50 50)"><animate attributeName="opacity" values="1;0" keyTimes="0;1" dur="1s" begin="-0.16666666666666666s" repeatCount="indefinite"/></rect><rect x="47" y="24" rx="3" ry="6" width="6" height="12" fill="#fe718d" style="animation-play-state:running;animation-delay:0s" transform="rotate(300 50 50)"><animate attributeName="opacity" values="1;0" keyTimes="0;1" dur="1s" begin="-0.08333333333333333s" repeatCount="indefinite"/></rect><rect x="47" y="24" rx="3" ry="6" width="6" height="12" fill="#fe718d" style="animation-play-state:running;animation-delay:0s" transform="rotate(330 50 50)"><animate attributeName="opacity" values="1;0" keyTimes="0;1" dur="1s" begin="0s" repeatCount="indefinite"/></rect></symbol><symbol id="lock-square" viewBox="0 0 24 24"><path d="M5 22h14a3 3 0 0 0 3-3v-9a3 3 0 0 0-3-3h-2V6A5 5 0 0 0 7 6v1H5a3 3 0 0 0-3 3v9a3 3 0 0 0 3 3zM9 6a3 3 0 1 1 6 0v1H9V6zm-5 4a1 1 0 0 1 1-1h14a1 1 0 0 1 1 1v9a1 1 0 0 1-1 1H5a1 1 0 0 1-1-1v-9zm6 4.5a2 2 0 1 1 4 0 2 2 0 0 1-4 0z" fill="#fff" fill-opacity=".5"/></symbol><symbol id="logo" viewBox="0 0 150 54"><path d="M100.872 10.22s-3.94 2.643-.883 4.513c1.986 1.225 6.618 3.804 6.334 5.803 0 0 2.206-2.676-.693-4.836-1.859-1.354-6.996-3.288-4.758-5.48zM106.071 1.225s-.315 2.16-3.718 3.224c-4.034 1.257-8.73 4.61-7.469 9.607 0 0-2.52-6.35 4.034-9.704 4.538-2.353 5.168-1.773 7.153-3.127zM108.151 28.531c-.031 0 .347 1.419 2.143 2.547 1.954 1.225 5.578 2.128 11.471 1.354 12.069-1.547 27.447-2.063 27.857 7.609 0 0-.031-5.739-12.889-5.287-10.998.419-26.691 3.32-28.582-6.223zM110.137 25.21s-.284-3.642 4.569-3.513c4.884.097 8.067 2.643 14.023 4.32 4.601 1.29 9.107 1.257 11.849.548 0 0-7.5 5.061-17.868.064-10.367-4.997-11.659-2.32-12.573-1.418zM110.987 19.472s1.072-3.062 7.532-3.095c7.783 0 13.078.162 14.968-2.61 0 0 .315 5.867-9.107 5.125-8.225-.645-12.29.161-13.393.58z" fill="#fff"/><path d="M105.252 25.855s.347-2.256-2.647-4.126c-8.225-5.19-6.334-5.964-3.813-8.543 0 0-1.48 1.482 1.985 2.804 3.435 1.29 5.61 4.481 5.547 6.351-.063 1.806-1.072 3.514-1.072 3.514z" fill="#fff"/><path d="M99.454 11.541s-3.75 2.999.315 5.9c2.741 1.967 5.987 2.74 5.42 5.545 0 0 3.75-4.352-.567-6.383-3.309-1.612-6.208-2.547-5.168-5.062zM109.317 25.082s-.252-7.996 11.534-6.222c8.54 1.29 22.468 4.062 26.533-3.74 0 0-.22 14.056-19.538 10.574 0 0-2.773-.387-9.264-2.611-6.114-2.063-8.13 1.032-9.265 1.999z" fill="#fff"/><path d="M110.735 22.438s-.913-5.77 9.517-4.964c7.5.58 20.452-.806 23.351-4.514 0 0-2.08 10.284-16.481 7.673-16.387-2.966-16.387 1.805-16.387 1.805zM98.666 18.988s-.284-.58-.41-1.321c-.44-2.676-.472-8.64 7.721-7.415 8.13 1.225 12.794-1.806 13.834-5.77 0 0-3.309 3.578-11.313 3.094-10.053-.613-13.771 4.417-9.832 11.412z" fill="#fff"/><path d="M118.298 1.193s-1.827 5.996-10.462 6.835c-6.208.612-8.162 2.095-9.359 3.707-.977 1.322-1.544 3.9.19 7.254 0 0-3.593-4.127-1.923-7.64 1.67-3.515 4.191-5.03 8.981-6.094 3.529-.806 9.485-1.193 12.573-4.062z" fill="#fff"/><path d="M111.397.097s-.473 3.256-7.91 6.254c-5.357 2.16-9.107 6.673-4.79 12.638 0 0-7.09-5.32-3.056-11.38 0 0 1.953-3.16 7.027-4.16 3.025-.644 7.153-1.386 8.729-3.352zM108.939 28.66s-1.922 4.127 15.41 5.964c21.145 2.225 18.687 10.833 17.584 12.928 0 0 1.859-4.546-8.036-7.963-8.697-2.966-9.485-.935-16.197-3.965-6.744-2.998-10.211-3.127-8.761-6.964z" fill="#fff"/><path d="M107.08 31.304s1.261 1.547 7.847 6.093c7.153 4.933 2.867 16.603-6.586 14.765 0 0 5.766 2.74 10.619-.87 6.492-4.804 1.355-13.573-5.325-16.41-4.286-1.805-4.381-2.224-6.555-3.578z" fill="#fff"/><path d="M117.447 13.121s-8.287-3.417-11.344 4.868c-3.057 8.286-1.072 12.8 4.349 15.894 5.42 3.063 19.285 9.317 17.552 17.312 0 0 6.082-11.928-11.344-16.603-10.652-2.837-7.816-6.319-6.019-10.38 2.332-5.256 1.544-10.994 6.806-11.09zM8.193 32.045a.785.785 0 0 1-.063.29c-.031.097-.094.162-.157.258a.683.683 0 0 1-.252.161.901.901 0 0 1-.284.065.901.901 0 0 1-.284-.065.683.683 0 0 1-.252-.16l-5.42-5.804v5.9H0v-7.737c0-.162.032-.29.126-.42a.902.902 0 0 1 .315-.29.708.708 0 0 1 .441-.032.582.582 0 0 1 .378.226l5.42 5.803v-5.932h1.513v7.737zM18.718 32.69h-1.607v-2.224H11.44v2.224H9.832v-4.545c0-.677.126-1.29.346-1.838.221-.548.536-1.032.946-1.45.41-.388.85-.71 1.418-.936.536-.225 1.134-.322 1.765-.322h3.623c.127 0 .221.032.316.064a.491.491 0 0 1 .252.194c.063.064.126.161.189.258.031.096.063.193.063.322l-.032 8.253zm-7.28-3.9h5.673v-3.547h-2.836c-.063 0-.158 0-.315.032-.158 0-.347.065-.567.097-.22.064-.442.161-.662.258a2.35 2.35 0 0 0-.63.516c-.19.225-.347.483-.473.806-.126.322-.19.709-.19 1.193v.644zM30.945 32.69h-1.638v-5.416l-2.868 5.158a.626.626 0 0 1-.283.29.856.856 0 0 1-.41.097.952.952 0 0 1-.41-.097.626.626 0 0 1-.283-.29l-2.868-5.158v5.416h-1.607v-8.382a.99.99 0 0 1 .157-.516.612.612 0 0 1 .442-.29c.094-.032.189-.032.252-.032.094 0 .157.032.252.064a.504.504 0 0 1 .22.13c.063.064.127.128.158.193l3.687 6.544 3.687-6.544a.75.75 0 0 1 .41-.355c.157-.064.346-.064.535-.032.19.064.315.161.442.29.125.161.157.322.157.516v8.414h-.032zM42.164 29.015c0 .548-.095 1.064-.284 1.515-.189.451-.44.87-.787 1.193a3.629 3.629 0 0 1-1.166.806c-.441.193-.946.29-1.481.29H36.27c-.535 0-1.04-.097-1.48-.29-.442-.194-.852-.451-1.167-.806-.346-.322-.599-.741-.788-1.193a3.926 3.926 0 0 1-.283-1.515v-1.741c0-.548.094-1.064.283-1.515.19-.451.442-.87.788-1.193a3.8 3.8 0 0 1 1.166-.806c.441-.193.946-.29 1.481-.29h2.175c.535 0 1.04.097 1.48.29.442.193.852.451 1.167.806.315.322.598.742.787 1.193.19.483.284.967.284 1.515v1.74zm-1.607-1.741c0-.322-.063-.613-.158-.87a1.924 1.924 0 0 0-.44-.677c-.19-.194-.41-.323-.663-.452a2.358 2.358 0 0 0-.85-.161H36.27c-.315 0-.599.064-.85.161a1.874 1.874 0 0 0-.662.452c-.19.193-.316.419-.442.677a2.512 2.512 0 0 0-.157.87v1.74c0 .323.063.614.157.871.095.258.252.484.442.677.189.194.41.323.661.452.252.096.536.16.851.16h2.175c.315 0 .598-.064.85-.16.252-.097.473-.258.662-.452.19-.193.315-.419.441-.677.095-.258.158-.548.158-.87v-1.741zM52.626 26.63c0 .386-.031.708-.126.998-.094.29-.22.549-.378.774-.158.226-.347.42-.536.58-.189.162-.41.29-.63.387-.22.097-.441.194-.662.226-.22.032-.44.065-.63.065l3.372 2.966h-2.49l-3.371-2.966h-1.166v-1.612h3.655c.19-.033.378-.065.567-.13a1.318 1.318 0 0 0 .725-.709c.063-.16.094-.354.094-.58v-1.032c0-.096 0-.16-.031-.225-.032-.065-.063-.097-.094-.097-.032-.032-.063-.032-.127-.032h-5.42v7.447h-1.607v-8.285c0-.13.032-.226.063-.323a.706.706 0 0 1 .158-.258c.063-.064.157-.129.252-.193.094-.032.22-.065.315-.065h6.113c.347 0 .662.065.914.194s.441.29.599.516c.158.193.252.419.347.644.063.226.094.452.094.645v1.064z" fill="#fff"/><path d="M62.994 32.69h-1.608v-2.224h-5.672v2.224h-1.607v-4.545c0-.677.126-1.29.347-1.838.22-.548.535-1.032.945-1.45.41-.388.85-.71 1.418-.936.536-.225 1.135-.322 1.765-.322h3.624c.126 0 .22.032.315.064a.49.49 0 0 1 .252.194c.063.096.126.161.19.258.03.096.062.193.062.322v8.253h-.031zm-7.28-3.9h5.672v-3.547H58.55c-.063 0-.157 0-.315.032-.157 0-.346.065-.567.097-.22.064-.441.161-.662.258-.22.129-.441.29-.63.516a2.83 2.83 0 0 0-.473.806c-.126.322-.189.709-.189 1.193v.644zM73.74 28.886c0 .548-.095 1.064-.284 1.515-.19.451-.441.87-.788 1.193-.347.322-.725.612-1.166.806-.441.193-.945.29-1.48.29h-4.35c-.126 0-.22-.032-.315-.064a.683.683 0 0 1-.252-.162.705.705 0 0 1-.157-.258 1.166 1.166 0 0 1-.063-.322v-7.48a.97.97 0 0 1 .063-.322.705.705 0 0 1 .157-.258c.063-.064.158-.129.252-.193.095-.032.22-.065.315-.065h4.35c.535 0 1.039.097 1.48.29.441.194.851.452 1.166.806.347.323.599.742.788 1.193.189.484.284.968.284 1.516v1.515zm-1.608-1.483c0-.323-.063-.613-.157-.87a1.924 1.924 0 0 0-.441-.678c-.19-.193-.41-.322-.662-.451a2.358 2.358 0 0 0-.85-.161H66.46v5.803h3.561c.315 0 .599-.065.85-.161.253-.097.474-.258.663-.452.189-.193.315-.419.44-.677.095-.258.158-.548.158-.87v-1.483zM84.044 32.69h-1.607v-2.224h-5.672v2.224h-1.607v-4.545c0-.677.126-1.29.346-1.838.22-.548.536-1.032.946-1.45.41-.388.85-.71 1.418-.936.535-.225 1.134-.322 1.764-.322h3.624c.126 0 .22.032.316.064a.491.491 0 0 1 .252.194c.063.064.126.161.189.258a.97.97 0 0 1 .063.322v8.253h-.032zm-7.28-3.9h5.673v-3.547h-2.836c-.063 0-.158 0-.315.032-.158 0-.347.065-.567.097-.221.064-.442.161-.662.258a2.35 2.35 0 0 0-.63.516c-.19.225-.347.483-.473.806-.126.322-.19.709-.19 1.193v.644zM94.475 30.014c0 .323-.032.613-.126.87-.095.259-.19.484-.315.678a2.404 2.404 0 0 1-.473.515c-.19.13-.347.259-.567.355a1.97 1.97 0 0 1-.567.194c-.19.032-.379.064-.568.064h-6.208v-1.644h6.208c.315 0 .536-.097.725-.29.158-.194.252-.452.252-.742 0-.16-.031-.29-.063-.419-.031-.129-.126-.226-.189-.322a1.134 1.134 0 0 0-.315-.226c-.126-.064-.252-.064-.41-.064h-3.718c-.252 0-.536-.033-.851-.13-.315-.096-.567-.257-.85-.45a2.42 2.42 0 0 1-.631-.839 3.071 3.071 0 0 1-.252-1.257c0-.484.094-.903.252-1.258a2.42 2.42 0 0 1 .63-.838c.252-.225.536-.354.851-.451.315-.097.599-.129.85-.129h5.484v1.644h-5.483c-.315 0-.536.097-.725.29a1.166 1.166 0 0 0-.252.742c0 .322.094.58.252.741.158.194.41.29.725.29h3.718c.19 0 .347.033.568.065.189.032.378.129.567.193.189.097.378.226.535.355.19.129.316.322.473.516.126.193.252.419.315.677.126.258.158.548.158.87zM61.859 40.846h-6.46v7.448h-1.607V40.04c0-.13.031-.226.063-.323a.705.705 0 0 1 .157-.258c.063-.064.158-.129.252-.193a1.1 1.1 0 0 1 .316-.065h7.279v1.645zm-.725 3.708H56.03v-1.677h5.105v1.677zM72.448 44.586c0 .548-.095 1.064-.284 1.516-.19.45-.441.87-.788 1.192a3.63 3.63 0 0 1-1.166.806c-.441.194-.945.29-1.481.29h-2.174c-.536 0-1.04-.096-1.481-.29-.442-.193-.851-.451-1.166-.806-.347-.322-.6-.741-.788-1.192a3.924 3.924 0 0 1-.284-1.516v-1.708c0-.548.095-1.064.284-1.516.189-.45.441-.87.788-1.192a3.8 3.8 0 0 1 1.166-.806c.44-.194.945-.29 1.48-.29h2.175c.536 0 1.04.096 1.481.29.441.193.851.451 1.166.806.315.322.599.741.788 1.192.189.484.284.968.284 1.516v1.708zm-1.608-1.708a2.51 2.51 0 0 0-.157-.87 1.923 1.923 0 0 0-.441-.678c-.19-.193-.41-.322-.662-.451a2.356 2.356 0 0 0-.851-.161h-2.174c-.316 0-.6.064-.851.16a1.874 1.874 0 0 0-.662.452c-.189.194-.315.42-.441.677a2.513 2.513 0 0 0-.158.87v1.742c0 .322.063.612.158.87.094.258.252.484.441.677.19.194.41.322.662.451.252.097.536.162.85.162h2.175c.315 0 .599-.065.85-.162.253-.096.474-.258.663-.451.189-.193.315-.42.44-.677a2.51 2.51 0 0 0 .158-.87v-1.741zM82.122 40.846h-6.46v7.448h-1.607V40.04c0-.13.031-.226.063-.323a.704.704 0 0 1 .157-.258c.063-.064.158-.129.252-.193.095-.033.221-.065.316-.065h7.279v1.645zm-.725 3.708h-5.105v-1.677h5.105v1.677zM92.71 44.586c0 .548-.095 1.064-.284 1.516-.189.45-.44.87-.788 1.192a3.629 3.629 0 0 1-1.165.806c-.442.194-.946.29-1.481.29h-2.175c-.536 0-1.04-.096-1.481-.29-.441-.193-.85-.451-1.166-.806-.347-.322-.599-.741-.788-1.192a3.926 3.926 0 0 1-.283-1.516v-1.708c0-.548.094-1.064.283-1.516.19-.45.441-.87.788-1.192.347-.323.725-.613 1.166-.806.441-.194.945-.29 1.481-.29h2.175c.535 0 1.04.096 1.48.29.442.193.851.451 1.166.806.347.322.6.741.788 1.192.19.484.284.968.284 1.516v1.708zm-1.639-1.708c0-.323-.063-.613-.157-.87a1.924 1.924 0 0 0-.441-.678c-.19-.193-.41-.322-.662-.451a2.356 2.356 0 0 0-.851-.161h-2.174c-.316 0-.6.064-.851.16a1.875 1.875 0 0 0-.662.452c-.19.194-.315.42-.441.677a2.513 2.513 0 0 0-.158.87v1.742c0 .322.063.612.158.87.094.258.252.484.441.677.19.194.41.322.662.451.252.097.535.162.85.162h2.175c.315 0 .599-.065.85-.162.253-.096.474-.258.663-.451.189-.193.315-.42.44-.677.095-.258.158-.548.158-.87v-1.741zM102.826 45.618c0 .322-.032.612-.126.87a3.313 3.313 0 0 1-.316.677 2.4 2.4 0 0 1-.472.516 2.11 2.11 0 0 1-.567.355 1.99 1.99 0 0 1-.568.193c-.189.032-.378.065-.567.065h-6.208V46.65h6.208c.315 0 .536-.097.725-.29a1.17 1.17 0 0 0 .252-.742c0-.161-.032-.29-.063-.42-.032-.128-.126-.225-.189-.322a1.14 1.14 0 0 0-.315-.225c-.126-.065-.252-.065-.41-.065h-3.718c-.252 0-.536-.032-.851-.129-.315-.096-.567-.258-.851-.451a2.422 2.422 0 0 1-.63-.838 3.072 3.072 0 0 1-.252-1.258c0-.483.094-.902.252-1.257.157-.355.378-.612.63-.838.252-.226.536-.355.85-.451.316-.097.6-.13.852-.13h5.483v1.645h-5.483c-.316 0-.536.096-.725.29a1.167 1.167 0 0 0-.252.741c0 .323.094.58.252.742.157.193.41.29.725.29h3.718c.189 0 .347.032.567.065.221.032.378.129.568.193.189.097.378.226.535.355.189.129.315.322.473.515.126.194.252.42.315.678.126.225.158.515.158.87z" fill="#FFFFFD"/></symbol><symbol id="mail" viewBox="0 0 24 24"><path d="M19 4H5a3 3 0 0 0-3 3v10a3 3 0 0 0 3 3h14a3 3 0 0 0 3-3V7a3 3 0 0 0-3-3zM5 6h14a1 1 0 0 1 1 1l-8 4.88L4 7a1 1 0 0 1 1-1zm15 11a1 1 0 0 1-1 1H5a1 1 0 0 1-1-1V9.28l7.48 4.57a1 1 0 0 0 1 0L20 9.28V17z" fill="#fff"/></symbol><symbol id="password" viewBox="0 0 24 24"><path d="M11 11.72V15a1 1 0 0 0 2 0v-3.28A2 2 0 0 0 14 10a2 2 0 1 0-4 0 2 2 0 0 0 1 1.72zM21 2H3a1 1 0 0 0-1 1v18a1 1 0 0 0 1 1h18a1 1 0 0 0 1-1V3a1 1 0 0 0-1-1zm-1 18H4V4h16v16z" fill="#fff"/></symbol><symbol id="Portugal" viewBox="0 0 960 177"><path d="M120.056 20l1.604-1.918L120.056 20zm0 63.6l1.604 1.918-1.604-1.918zm-89.8 11.2v-2.5h-2.5v2.5h2.5zm0 45.2v2.5h2.5V140h-2.5zm-30 0h-2.5v2.5h2.5V140zm0-131.2V6.3h-2.5v2.5h2.5zm97.4 55.6l1.475 2.018.025-.018.024-.018-1.524-1.982zm0-25l-1.524 1.982.024.018.025.019 1.475-2.019zm-67.4-4v-2.5h-2.5v2.5h2.5zm0 32.8h-2.5v2.5h2.5v-2.5zm53.2-56.9c15.075 0 26.643 3.635 34.997 10.618l3.207-3.836C112.147 10.132 99.315 6.3 83.456 6.3v5zm34.997 10.618c8.298 6.936 12.503 16.397 12.503 28.682h5c0-13.581-4.727-24.52-14.296-32.518l-3.207 3.836zM130.956 50.6v2.2h5v-2.2h-5zm0 2.2c0 12.428-4.212 21.952-12.503 28.882l3.207 3.836c9.575-8.003 14.296-19.013 14.296-32.718h-5zm-12.503 28.882C110.099 88.665 98.531 92.3 83.456 92.3v5c15.859 0 28.691-3.831 38.204-11.782l-3.207-3.836zM83.456 92.3h-53.2v5h53.2v-5zm-55.7 2.5V140h5V94.8h-5zm2.5 42.7h-30v5h30v-5zm-27.5 2.5V8.8h-5V140h5zM.256 11.3h83.2v-5H.256v5zm82.4 59.4c6.803 0 12.41-1.31 16.475-4.282l-2.95-4.037C93.314 64.478 88.92 65.7 82.656 65.7v5zm16.524-4.318c4.185-3.22 6.176-7.878 6.176-13.582h-5c0 4.43-1.475 7.504-4.224 9.618l3.048 3.964zm6.176-13.582v-2.2h-5v2.2h5zm0-2.2c0-5.595-2.011-10.14-6.225-13.218l-2.95 4.037c2.72 1.987 4.175 4.91 4.175 9.181h5zm-6.175-13.182c-4.073-3.132-9.7-4.518-16.525-4.518v5c6.242 0 10.615 1.281 13.476 3.482l3.048-3.964zM82.655 32.9h-52.4v5h52.4v-5zm-54.9 2.5v32.8h5V35.4h-5zm2.5 35.3h52.4v-5h-52.4v5zm144.311 65.7l-1.024 2.28.013.007.014.006.997-2.293zm-21.2-17.6l-2.107 1.345.005.008.005.008 2.097-1.361zm-.2-57.4l-2.107-1.344-.009.013-.008.013 2.124 1.318zm21.2-17.8l-1.024-2.28 1.024 2.28zm65.2 0l1.037-2.275-1.037 2.275zm20.8 17.8l-2.124 1.318.008.013.009.014 2.107-1.345zm0 57.4l-2.107-1.345-.007.01 2.114 1.335zm-20.8 17.6l1.009 2.287.014-.006.014-.006-1.037-2.275zm-10-26.8l-1.538-1.971-.012.009-.012.01 1.562 1.952zm-45.6-39.2l1.562 1.952.015-.012.014-.012-1.591-1.928zm0 39.2l-1.562 1.952.012.01.012.009 1.538-1.971zm23.2 30.3c-12.273 0-22.786-1.959-31.603-5.793l-1.994 4.586c9.583 4.166 20.804 6.207 33.597 6.207v-5zm-31.575-5.78c-8.813-3.96-15.485-9.529-20.128-16.681l-4.194 2.722c5.224 8.048 12.686 14.212 22.273 18.519l2.049-4.56zm-20.117-16.665c-4.644-7.279-7.008-15.866-7.008-25.855h-5c0 10.811 2.57 20.358 7.793 28.545l4.215-2.69zM148.467 91.6V89h-5v2.6h5zm0-2.6c0-10.282 2.31-19.008 6.824-26.282l-4.248-2.636c-5.085 8.193-7.576 17.867-7.576 28.918h5zm6.808-26.255c4.645-7.282 11.315-12.91 20.117-16.865l-2.049-4.56c-9.599 4.312-17.062 10.55-22.283 18.736l4.215 2.689zm20.117-16.865c8.806-3.956 19.374-5.98 31.775-5.98v-5c-12.932 0-24.231 2.11-33.824 6.42l2.049 4.56zm31.775-5.98c12.265 0 22.695 2.023 31.363 5.975l2.074-4.55c-9.465-4.315-20.635-6.425-33.437-6.425v5zm31.363 5.975c8.662 3.949 15.198 9.569 19.713 16.843l4.248-2.636c-5.084-8.192-12.416-14.44-21.887-18.757l-2.074 4.55zm19.73 16.87c4.637 7.27 7.007 15.986 7.007 26.255h5c0-11.064-2.563-20.748-7.792-28.944l-4.215 2.689zM265.267 89v2.6h5V89h-5zm0 2.6c0 9.989-2.363 18.576-7.007 25.855l4.215 2.69c5.222-8.187 7.792-17.734 7.792-28.545h-5zm-7.014 25.865c-4.512 7.145-11.049 12.706-19.723 16.66l2.074 4.55c9.46-4.313 16.789-10.485 21.877-18.54l-4.228-2.67zm-19.695 16.648c-8.676 3.828-19.116 5.787-31.391 5.787v5c12.792 0 23.952-2.041 33.409-6.213l-2.018-4.574zM206.967 118.5c10.065 0 18.231-2.203 24.162-6.948l-3.124-3.904c-4.735 3.788-11.636 5.852-21.038 5.852v5zm24.138-6.929c6.161-4.809 9.162-11.652 9.162-20.171h-5c0 7.214-2.465 12.504-7.238 16.229l3.076 3.942zm9.162-20.171v-2.2h-5v2.2h5zm0-2.2c0-8.733-2.896-15.768-8.909-20.728l-3.182 3.856c4.654 3.84 7.091 9.339 7.091 16.872h5zm-8.909-20.728c-5.938-4.9-14.187-7.172-24.391-7.172v5c9.529 0 16.481 2.128 21.209 6.028l3.182-3.856zM206.967 61.3c-10.328 0-18.647 2.268-24.591 7.172l3.182 3.856c4.723-3.896 11.737-6.028 21.409-6.028v-5zm-24.562 7.148c-6.052 4.842-8.938 11.903-8.938 20.752h5c0-7.684 2.447-13.156 7.062-16.848l-3.124-3.904zM173.467 89.2v2.2h5v-2.2h-5zm0 2.2c0 8.496 2.918 15.336 8.938 20.152l3.124-3.904c-4.646-3.717-7.062-9.011-7.062-16.248h-5zm8.962 20.171c6.058 4.728 14.344 6.929 24.538 6.929v-5c-9.539 0-16.586-2.066-21.462-5.871l-3.076 3.942zM367.081 39.8h2.5v-2.5h-2.5v2.5zm0 25.6v2.5h2.5v-2.5h-2.5zm-48.8 9.4l-1.944-1.572-.556.688v.884h2.5zm0 65.2v2.5h2.5V140h-2.5zm-28.8 0h-2.5v2.5h2.5V140zm0-100.2v-2.5h-2.5v2.5h2.5zm27 0l2.491-.217-.199-2.283h-2.292v2.5zm.8 9.2l-2.49.217.384 4.417 3.58-2.615L317.281 49zm47.3-9.2v25.6h5V39.8h-5zm2.5 23.1h-22.4v5h22.4v-5zm-22.4 0c-12.866 0-22.589 3.21-28.344 10.328l3.888 3.144c4.379-5.415 12.255-8.472 24.456-8.472v-5zm-28.9 11.9V140h5V74.8h-5zm2.5 62.7h-28.8v5h28.8v-5zm-26.3 2.5V39.8h-5V140h5zm-2.5-97.7h27v-5h-27v5zm24.51-2.283l.8 9.2 4.981-.434-.8-9.2-4.981.434zm4.764 11.002c7.895-5.764 17.752-8.719 29.726-8.719v-5c-12.825 0-23.769 3.179-32.674 9.68l2.948 4.04zm29.726-8.719h18.6v-5h-18.6v5zm82.132 23.1v-2.5h-2.5v2.5h2.5zm2.999 46.4l-1.767 1.768.059.059.062.054 1.646-1.881zm32.6 2.8h2.5v-2.5h-2.5v2.5zm0 25.4v2.5h2.5V140h-2.5zm-54.6-9.2l-1.712 1.822.01.009.01.009 1.692-1.84zm-10-65.4h2.5v-2.5h-2.5v2.5zm-33.4 0h-2.5v2.5h2.5v-2.5zm0-25.6v-2.5h-2.5v2.5h2.5zm32.6-1.6l1.768 1.768-1.768-1.768zm1.601-25v-2.5h-2.5v2.5h2.5zm28.2 0h2.5v-2.5h-2.5v2.5zm0 26.6h-2.5v2.5h2.5v-2.5zm41.599 0h2.5v-2.5h-2.5v2.5zm0 25.6v2.5h2.5v-2.5h-2.5zm-44.099 0v38h5v-38h-5zm0 38c0 4.073 1.144 7.58 3.732 10.168l3.535-3.536c-1.412-1.412-2.267-3.505-2.267-6.632h-5zm3.853 10.281c2.732 2.391 6.396 3.419 10.647 3.419v-5c-3.483 0-5.82-.839-7.354-2.181l-3.293 3.762zm10.647 3.419h23.599v-5h-23.599v5zm21.099-2.5V140h5v-25.4h-5zm2.5 22.9h-27.4v5h27.4v-5zm-27.4 0c-11.012 0-19.415-2.935-25.507-8.54l-3.385 3.68c7.241 6.662 16.972 9.86 28.892 9.86v-5zm-25.487-8.522c-6.08-5.715-9.213-13.476-9.213-23.578h-5c0 11.232 3.535 20.403 10.788 27.222l3.425-3.644zm-9.213-23.578v-40h-5v40h5zm-2.5-42.5h-33.4v5h33.4v-5zm-30.9 2.5V39.8h-5v25.6h5zm-2.5-23.1h26.801v-5h-26.801v5zm26.801 0c2.952 0 5.764-.53 7.567-2.332l-3.535-3.536c-.331.33-1.385.868-4.032.868v5zm7.567-2.332c1.803-1.803 2.333-4.616 2.333-7.568h-5c0 2.648-.538 3.702-.868 4.032l3.535 3.536zm2.333-7.568V13.2h-5v19.2h5zm-2.5-16.7h28.2v-5h-28.2v5zm25.7-2.5v26.6h5V13.2h-5zm2.5 29.1h41.599v-5h-41.599v5zm39.099-2.5v25.6h5V39.8h-5zm2.5 23.1h-41.599v5h41.599v-5zm129.107-23.1h2.5v-2.5h-2.5v2.5zm0 100.2v2.5h2.5V140h-2.5zm-27 0l-2.492.208.191 2.292h2.301V140zm-.8-9.6l2.491-.208-.412-4.947-3.73 3.277 1.651 1.878zm-33.8 12l.019 2.5H539.767l-.048-2.5zm-39.4-13.2l-1.781 1.755.013.013.013.013 1.755-1.781zm-13.4-89.4v-2.5h-2.5v2.5h2.5zm29 0h2.5v-2.5h-2.5v2.5zm7 69.4l-1.768 1.768.025.025.026.025 1.717-1.818zm37.8 2.6l1.209 2.188.022-.012.021-.012-1.252-2.164zm11.6-11.8l2.199 1.189.301-.557V100h-2.5zm0-60.2v-2.5h-2.5v2.5h2.5zm26.5 0V140h5V39.8h-5zm2.5 97.7h-27v5h27v-5zm-24.509 2.292l-.8-9.6-4.983.416.8 9.6 4.983-.416zm-4.942-11.27c-8.281 7.278-18.948 11.121-32.198 11.378l.097 5c14.217-.277 26.084-4.433 35.402-12.622l-3.301-3.756zM539.699 139.9c-16.776.13-29.178-4.158-37.626-12.481l-3.509 3.562c9.686 9.544 23.55 14.056 41.174 13.919l-.039-5zM502.1 127.445c-8.32-8.443-12.681-21.046-12.681-38.245h-5c0 18.001 4.572 32.065 14.119 41.755l3.562-3.51zM489.419 89.2V39.8h-5v49.4h5zm-2.5-46.9h29v-5h-29v5zm26.5-2.5v49.4h5V39.8h-5zm0 49.4c0 9.114 2.463 16.499 7.732 21.768l3.536-3.536c-4.065-4.064-6.268-10.013-6.268-18.232h-5zm7.783 21.818c5.414 5.113 13.053 7.482 22.517 7.482v-5c-8.67 0-14.898-2.164-19.084-6.118l-3.433 3.636zm22.517 7.482c6.653 0 12.742-1.491 18.209-4.512l-2.418-4.376c-4.667 2.579-9.912 3.888-15.791 3.888v5zm18.252-4.536c5.448-3.154 9.651-7.417 12.547-12.775l-4.398-2.378c-2.438 4.509-5.968 8.113-10.654 10.825l2.505 4.328zM574.819 100V39.8h-5V100h5zm-2.5-57.7h29v-5h-29v5zm170.787-2.5h2.5v-2.5h-2.5v2.5zm-59.4 136.6l.017-2.5h-.017v2.5zm-44-10.2l-1.356 2.1 1.356-2.1zm-15.8-29.6v-2.5h-2.5v2.5h2.5zm29.6 0h2.5v-2.5h-2.5v2.5zm8.4 10.8l-1.03 2.278 1.03-2.278zm44.2-1.8l-1.398-2.072-.03.02-.03.021 1.458 2.031zm8-21h2.5v-4.69l-3.893 2.614 1.393 2.076zm-75.6-74.4l1.596 1.925.007-.007.008-.006-1.611-1.912zm77-2.6l-1.472 2.02 3.621 2.639.344-4.467-2.493-.192zm.6-7.8v-2.5h-2.315l-.177 2.308 2.492.192zm-14.4 66.4l-.878-2.341.878 2.341zm12.4-8.2l1.909 1.615.591-.7V98h-2.5zm0-23.4h2.5v-.916l-.591-.699-1.909 1.615zm-12.6-8.4l-.928 2.321.01.004.009.004.909-2.329zm-40.8 37.8l-1.473 2.019.03.023.032.021 1.411-2.063zm79.9-64.2v89h5v-89h-5zm0 89c0 15.458-4.756 26.611-13.913 33.949-9.261 7.422-23.44 11.283-42.97 11.151l-.034 5c20.07.135 35.592-3.804 46.131-12.249 10.642-8.529 15.786-21.309 15.786-37.851h-5zm-56.9 45.1c-18.543 0-32.669-3.361-42.644-9.8l-2.712 4.2c11.092 7.161 26.3 10.6 45.356 10.6v-5zm-42.644-9.8c-9.849-6.358-14.656-15.049-14.656-26.3h-5c0 13.016 5.726 23.258 16.944 30.5l2.712-4.2zm-14.656-26.3v-1.2h-5v1.2h5zm-2.5 1.3h29.6v-5h-29.6v5zm27.1-2.5v1.2h5v-1.2h-5zm0 1.2c0 5.36 3.96 9.204 9.87 11.878l2.061-4.556c-5.29-2.393-6.931-4.949-6.931-7.322h-5zm9.87 11.878c6.024 2.725 13.471 4.022 22.23 4.022v-5c-8.307 0-14.993-1.236-20.169-3.578l-2.061 4.556zm22.23 4.022c10.374 0 18.65-1.9 24.458-6.069l-2.916-4.062c-4.592 3.297-11.649 5.131-21.542 5.131v5zm24.399-6.028c6.083-4.106 9.101-10.184 9.101-17.872h-5c0 6.179-2.315 10.634-6.898 13.728l2.797 4.144zm9.101-17.872v-5.2h-5v5.2h5zm-3.893-7.276c-8.871 5.956-19.371 8.976-31.607 8.976v5c13.098 0 24.597-3.247 34.394-9.824l-2.787-4.152zm-31.607 8.976c-18.212 0-31.842-3.935-41.238-11.452l-3.123 3.904c10.603 8.483 25.507 12.548 44.361 12.548v-5zm-41.238-11.452c-9.305-7.444-14.062-18.133-14.062-32.448h-5c0 15.551 5.243 27.796 15.939 36.352l3.123-3.904zM625.806 87.6v-2h-5v2h5zm0-2c0-14.584 4.828-25.627 14.296-33.475l-3.191-3.85c-10.799 8.952-16.105 21.51-16.105 37.325h5zm14.311-33.488c9.537-8.031 23.09-12.212 40.989-12.212v-5c-18.633 0-33.481 4.353-44.21 13.388l3.221 3.824zM681.106 39.9c13.168 0 24.095 3.285 32.928 9.72l2.944-4.04c-9.833-7.165-21.84-10.68-35.872-10.68v5zm36.893 7.892l.6-7.8-4.985-.384-.6 7.8 4.985.384zm-1.893-5.492h27v-5h-27v5zm-32 69.4c6.663 0 12.832-1.042 18.478-3.159l-1.756-4.682c-5.02 1.883-10.585 2.841-16.722 2.841v5zm18.478-3.159c5.633-2.113 10.16-5.061 13.431-8.926l-3.817-3.23c-2.596 3.068-6.336 5.587-11.37 7.474l1.756 4.682zM716.606 98V74.6h-5V98h5zm-.591-25.015c-3.269-3.863-7.856-6.872-13.6-9.114l-1.818 4.658c5.19 2.025 9.003 4.616 11.601 7.686l3.817-3.23zm-13.58-9.106c-5.655-2.262-11.773-3.379-18.329-3.379v5c5.978 0 11.46 1.016 16.472 3.021l1.857-4.642zM684.106 60.5c-10.498 0-18.825 1.913-24.579 6.134-5.897 4.328-8.721 10.802-8.721 18.966h5c0-6.903 2.31-11.729 6.679-14.934 4.513-3.312 11.587-5.166 21.621-5.166v-5zm-33.3 25.1v2h5v-2h-5zm0 2c0 7.95 2.715 14.251 8.427 18.419l2.947-4.038c-4.155-3.032-6.374-7.665-6.374-14.381h-5zm8.489 18.463c5.685 3.89 14.095 5.637 24.811 5.637v-5c-10.35 0-17.54-1.72-21.988-4.763l-2.823 4.126zm237.474 8.537h2.5v-2.5h-2.5v2.5zm0 25.4v2.5h2.5V140h-2.5zm-33-3l-1.091 2.25.041.019.041.018 1.009-2.287zm-10-9l2.156-1.264-1.591-2.715-2.285 2.164 1.72 1.815zm-76.2 6.4l1.403-2.069-1.403 2.069zm-3-41.8l1.583 1.935.013-.01.013-.012-1.609-1.913zm25.6-9.2l.266 2.486h.005l-.271-2.486zm49.4-5.4l.271 2.485 2.618-.286-.422-2.6-2.467.401zm-46.8-11.2l1.092 2.249.013-.007.013-.006-1.118-2.236zm-7 10.2v2.5h2.5V77h-2.5zm-29.2 0h-2.5v2.5h2.5V77zm6.8-21.2l-1.957-1.556-.011.014-.01.013 1.978 1.529zm19.8-13.6l.878 2.34-.878-2.34zm70.8 7l-1.572 1.944.007.006.006.005 1.559-1.955zm-28.8 66.2l.904 2.331.012-.005.012-.005-.928-2.321zm14.6-10.6l2.051 1.429.449-.644v-.785h-2.5zm0-6.8h2.5v-2.802l-2.784.318.284 2.484zm-42 4.8l-.284-2.484-.009.001-.008.001.301 2.482zm-9.8 2.8l-1.325-2.12 1.325 2.12zm96.3 9V140h5v-25.4h-5zm2.5 22.9h-17v5h17v-5zm-17 0c-5.866 0-10.842-.957-14.991-2.787l-2.018 4.574c4.917 2.17 10.608 3.213 17.009 3.213v-5zm-14.91-2.75c-3.997-1.938-6.94-4.613-8.934-8.014l-4.313 2.528c2.539 4.332 6.263 7.657 11.066 9.986l2.181-4.5zm-12.81-8.565c-9.53 9.029-23.232 13.715-41.48 13.715v5c19.085 0 34.183-4.914 44.919-15.085l-3.439-3.63zm-41.48 13.715c-13.863 0-24.301-2.623-31.597-7.569l-2.806 4.138c8.437 5.72 19.999 8.431 34.403 8.431v-5zm-31.597-7.569c-7.173-4.863-10.703-11.55-10.703-20.331h-5c0 10.419 4.336 18.665 12.897 24.469l2.806-4.138zM768.269 112c0-7.446 2.643-13.178 7.883-17.465l-3.166-3.87c-6.494 5.313-9.717 12.514-9.717 21.335h5zm7.909-17.487c5.346-4.495 13.332-7.457 24.257-8.627l-.533-4.972c-11.474 1.23-20.555 4.402-26.942 9.773l3.218 3.826zm24.262-8.628l49.4-5.4-.543-4.97-49.4 5.4.543 4.97zm51.596-8.285c-.925-5.71-4.036-10.06-9.159-12.888-4.994-2.758-11.778-4.012-20.108-4.012v5c7.936 0 13.752 1.213 17.691 3.388 3.811 2.105 5.967 5.155 6.641 9.312l4.935-.8zm-29.267-16.9c-8.717 0-15.825 1.217-21.118 3.864l2.236 4.472c4.307-2.154 10.532-3.336 18.882-3.336v-5zm-21.092 3.851c-5.264 2.557-8.408 6.496-8.408 11.849h5c0-2.914 1.522-5.375 5.592-7.351l-2.184-4.498zM793.269 76.4v.6h5v-.6h-5zm2.5-1.9h-29.2v5h29.2v-5zm-26.7 2.5v-.6h-5v.6h5zm0-.6c0-7.35 2.104-13.67 6.278-19.071l-3.956-3.058c-4.894 6.333-7.322 13.745-7.322 22.129h5zm6.256-19.044c4.33-5.443 10.521-9.74 18.722-12.815l-1.756-4.682c-8.866 3.325-15.875 8.094-20.879 14.385l3.913 3.112zm18.722-12.815c8.193-3.073 17.818-4.641 28.922-4.641v-5c-11.563 0-21.805 1.632-30.678 4.96l1.756 4.68zm28.922-4.641c17.256 0 30.29 3.858 39.428 11.244l3.143-3.888C855.212 38.908 840.912 34.9 822.969 34.9v5zm39.441 11.255c9.208 7.341 13.859 17.453 13.859 30.645h5c0-14.542-5.216-26.163-15.742-34.555l-3.117 3.91zM876.269 81.8v24.8h5V81.8h-5zm0 24.8c0 3.15.922 5.941 3.159 7.887 2.171 1.887 5.168 2.613 8.541 2.613v-5c-2.761 0-4.364-.608-5.26-1.387-.829-.72-1.44-1.93-1.44-4.113h-5zm11.7 10.5h8.8v-5h-8.8v5zm-75.4 4.6c8.777 0 16.627-1.303 23.504-3.969l-1.808-4.662c-6.19 2.4-13.407 3.631-21.696 3.631v5zm23.528-3.979c6.97-2.788 12.297-6.576 15.723-11.492l-4.102-2.858c-2.708 3.884-7.114 7.162-13.478 9.708l1.857 4.642zm16.172-12.921V98h-5v6.8h5zm-2.784-9.284l-42 4.8.568 4.968 42-4.8-.568-4.968zm-42.017 4.802c-4.528.549-8.227 1.539-10.824 3.162l2.65 4.24c1.669-1.044 4.503-1.92 8.776-2.438l-.602-4.964zm-10.824 3.162c-2.822 1.764-4.375 4.409-4.375 7.72h5c0-1.489.58-2.577 2.025-3.48l-2.65-4.24zm-4.375 7.72c0 1.829.52 3.527 1.604 4.989 1.063 1.433 2.564 2.501 4.321 3.291 3.455 1.553 8.332 2.22 14.375 2.22v-5c-5.824 0-9.847-.666-12.325-1.78-1.21-.544-1.934-1.142-2.355-1.709-.399-.538-.62-1.174-.62-2.011h-5zm128.864 21.2l-1.658 1.871.012.011.012.01 1.634-1.892zM912.333.8v-2.5h-2.5V.8h2.5zm28.8 0h2.5v-2.5h-2.5V.8zm2.4 111.6l1.689-1.843-1.689 1.843zm16.4 2.2h2.5v-2.5h-2.5v2.5zm0 25.4v2.5h2.5V140h-2.5zm-14-2.5c-10.292 0-17.899-2.443-23.166-6.992l-3.268 3.784c6.466 5.585 15.393 8.208 26.434 8.208v-5zm-23.142-6.971c-5.237-4.642-7.958-11.108-7.958-19.729h-5c0 9.779 3.145 17.713 9.642 23.471l3.316-3.742zm-7.958-19.729V.8h-5v110h5zm-2.5-107.5h28.8v-5h-28.8v5zm26.3-2.5v104.8h5V.8h-5zm0 104.8c0 3.471.91 6.534 3.211 8.643l3.378-3.686c-.899-.824-1.589-2.294-1.589-4.957h-5zm3.211 8.643c2.282 2.092 5.649 2.857 9.489 2.857v-5c-3.36 0-5.194-.702-6.111-1.543l-3.378 3.686zm9.489 2.857h8.6v-5h-8.6v5zm6.1-2.5V140h5v-25.4h-5zm2.5 22.9h-14v5h14v-5z" fill="#fff" fill-opacity=".03"/></symbol><symbol id="user" viewBox="0 0 24 24"><path d="M12 11a5 5 0 1 0 0-10 5 5 0 0 0 0 10zm0-8a3 3 0 1 1 0 6 3 3 0 0 1 0-6zM4 23h16a1 1 0 0 0 1-1v-4a5.006 5.006 0 0 0-5-5H8a5.006 5.006 0 0 0-5 5v4a1 1 0 0 0 1 1zm1-5a3 3 0 0 1 3-3h8a3 3 0 0 1 3 3v3H5v-3z" fill="#fff"/></symbol></svg>